<?xml version="1.0" encoding="utf-8"?>
<!-- Generator: Adobe Illustrator 20.1.0, SVG Export Plug-In . SVG Version: 6.00 Build 0)  -->
<svg version="1.1" id="Layer_1" xmlns="http://www.w3.org/2000/svg" xmlns:xlink="http://www.w3.org/1999/xlink" x="0px" y="0px"
	 viewBox="0 0 520 520" style="enable-background:new 0 0 520 520;" xml:space="preserve" width="520" height="520">
<style type="text/css">
	.st0{fill-rule:evenodd;clip-rule:evenodd;fill:#F61D1E;}
	.st1{fill-rule:evenodd;clip-rule:evenodd;fill:#C4000A;}
	.st2{fill:#F61D1E;}
</style>
<g>
	<rect class="st0" width="520" height="520"/>
	<rect x="134" y="322" class="st1" width="81" height="102"/>
	<path class="st1" d="M31.2,42.6c0,0,6.6-4.6,10.7-4.7c4.1-0.1,8.8,0.7,12.1,2.8c3.3,2,7,4.7,8.4,6.7c1.4,2,2.8,4.9,2.9,6.2
		c0.1,1.3-0.2,2.7,1.3,3c1.5,0.3,2.2,0.6,2.9,0.9c0.6,0.2,2.2,1.7,3.8-1.6c1.6-3.3,4-7.8,6.1-10.6c2-2.9,3.7-6.1,5-8
		c1.3-1.9,2-3.3,2.6-3.8c0.5-0.5,1.9-2.6,3.7,0.1c1.8,2.7,4.1,7.3,4.4,10.5c0.2,3.2-1.4,10.5-3.2,13c-1.8,2.4-8.1,9.6-13.3,10.3
		c0,0-2.3,0.5-2.7,2c-0.3,1.5-0.6,2.1-0.6,2.1s-0.3,1.7,1.3,2.8c1.6,1.1,5.8,3.2,9.1,5.4c3.3,2.2,10,6.8,12.1,8.1
		c2.1,1.3,4.2,2.7,1.3,4.7c-3,2-6.6,4.8-11.4,3.9c-4.8-0.9-8.8-1.4-10.8-2.4c-2-1.1-2.1,1.5-1.8,3.1c0.3,1.6,1.6,6.9,1.7,9.4
		c0.1,2.4,1,7.2,1.3,8.9c0.3,1.7,0.5,5-2.3,4.9c-2.9-0.1-12-0.2-14.6-0.1c-2.6,0.1-3.4,0.2-4.3,0.2c-0.8,0-3.4-0.5-3-3.2
		c0,0,0.7-7.8,1.4-11.6c0.6-3.8,2.8-11.1,2.8-14.1c0-3.1,1.2-10.3,1.2-11.4c0-1.1-1-2-2,0c-1.1,2-3,4.1-4,5.9
		c-1.1,1.8-1.5,3.2-3.1,5.3c-1.6,2.1-2.7,4.9-3.5,5.9c-0.9,1.1-2.2,3.8-2.6,4.3c-0.3,0.4-1.8,1.7-3.2,0.3c-1.4-1.4-4.7-9.8-4.9-12.4
		c-0.2-2.7,0.3-7.4,4.1-12.2c3.8-4.8,4.3-5.1,6.4-6.7c2.1-1.6,4.1-2.2,5.1-2.7c1-0.4,3.4-0.7,3.8-2.6c0.4-1.8,2.9-3.8-0.6-5.3
		c-3.5-1.5-10.2-5.1-14.6-7.9c-4.4-2.8-7.8-5.7-8.7-5.8C30.5,46,29.1,43.8,31.2,42.6z"/>
	<rect x="130" y="4" class="st1" width="120" height="151"/>
	<rect x="254" y="93" class="st1" width="170" height="146"/>
	<rect x="4" y="424" class="st1" width="126" height="92"/>
	<rect x="315" y="243" class="st1" width="201" height="160"/>
	<path class="st0" d="M167.5,69.8c0-1.4,0.1-3.8,0.1-5.1c0-0.4,0-0.9-0.3-1c-0.5-0.3-0.8,0.1-1.2,0.4c-1.2,1.2-2.5,1.8-3.9,2.9
		c-3.4,2.6-5.8,5.5-9.2,7.8c-1.2,1.1-3,2.5-4.3,3.5c-1,0.8,0,1.6,0,1.6c1.4,1.3,2.9,2.4,4.3,3.6c0.5,0.4,1.3,1.3,1.9,1.9
		c0.9,0.9,1.9,1.6,2.9,2.5c1,0.9,2.2,1.7,3.3,2.6c1.5,1.2,3,2.8,4.7,4.1c0.6,0.5,1.2,1.2,1.7,1c0.3-0.1,0.5-0.6,0.5-1.5
		c0-1.4,0-3.3-0.1-4.6c0-1.1,1.3-1,1.3-1c2.7,0.1,54.5,0,57.4,0c1.3,0,3.4,0,4.7-0.1c1.2-0.1,1-1.5,1-1.5c-0.2-2.8,0.1-4.1,0-7.5
		c-0.2-3.3,0-4.3,0-7.1c0,0,0-1.1-1.4-1.1c-3.8,0-58.7,0-62.3,0C168.6,71.1,167.5,71.2,167.5,69.8z"/>
	<path class="st0" d="M167.5,112.2c0-1.4,0.1-3.8,0.1-5.1c0-0.4,0-0.9-0.3-1c-0.5-0.3-0.8,0.1-1.2,0.4c-1.2,1.2-2.5,1.8-3.9,2.9
		c-3.4,2.7-5.8,5.5-9.2,7.8c-1.2,1.1-3,2.5-4.3,3.5c-1,0.8,0,1.6,0,1.6c1.4,1.3,2.9,2.4,4.3,3.6c0.5,0.4,1.3,1.3,1.9,1.9
		c0.9,0.9,1.9,1.6,2.9,2.5c1,0.9,2.2,1.7,3.3,2.6c1.5,1.2,3,2.8,4.7,4.1c0.6,0.5,1.2,1.2,1.7,1c0.3-0.1,0.5-0.6,0.5-1.5
		c0-1.4,0-3.3-0.1-4.6c0-1.1,1.3-1,1.3-1c2.7,0.1,54.5,0,57.4,0c1.3,0,3.4,0,4.7-0.1c1.2-0.1,1-1.5,1-1.5c-0.2-2.8,0.1-4.1,0-7.5
		c-0.2-3.3,0-4.3,0-7.1c0,0,0-1.1-1.4-1.1c-3.8,0-58.7,0-62.3,0C168.6,113.4,167.5,113.5,167.5,112.2z"/>
	<path class="st0" d="M363.1,172.7c0,5.6-0.2,11.3,0.2,16.5c-0.1,0.7,0.3,1.6,0.7,1.6c1.7,0,3.7-3,4.9-4.3
		c3.5-3.8,8.4-8.4,12.5-12.7c1.3-1.3,3.1-4,4.2-4.2c2.1-0.5,6.3-0.3,9.2-0.4c3.1-0.1,3-2.9,3-2.9c0-7.5,0-13.4,0-22.2
		c0-8.1,0.1-18.6-0.2-26.2c-0.1-2.2-2.7-2-2.7-2c-15.8-0.4-32.8,0-49.6,0.1c-2.4,0-8.5-0.1-10.7,0c-2.6,0.1-6.1-0.6-7,0.6
		c-0.8,1.1-0.6,2.4-0.6,4.4c0,8,0,16.4,0.1,22.4c0.1,8.6-0.2,16.1,0.2,23.6c0,0-0.2,2.4,2.3,2.4c3,0,5.9,0.1,8.9,0
		c7.6-0.2,14.5,0,21.3,0.1C360.1,169.5,363.1,169.4,363.1,172.7z"/>
	<path class="st2" d="M344.8,207.6l-10.1-11.7c0,0-3.4-2.9-6.2,0.2c-2.8,3.2-4.4,3.8-4.4,3.8s-3.6,3-6.6,0
		c-3.1-3-16.8-19.5-16.8-19.5s-3.2-4.1-0.7-6.6s6.5-5.7,6.5-5.7s2.6-2-1.2-6.4c-3.8-4.4-9.1-10.7-9.1-10.7s-3-2.3-6.1,0.6
		c0,0-7.3,6.8-8.1,11.9c-0.8,5.1-0.1,16.3,7.5,27.3c7.6,11,17.7,19.4,22,23c4.3,3.6,12.5,7.2,18.5,6.8c6-0.4,13.6-6.6,14.8-8
		C345.9,211.2,346.8,209.8,344.8,207.6z"/>
	<path class="st0" d="M342.2,129.9"/>
	<rect x="4" y="159" class="st1" width="126" height="122"/>
	<g>
		<path class="st0" d="M30.8,221.4c0,0-2.8,0.1-2.4-3.3c0.3-3.4,2-9.4,2.9-11.6c0.8-2.2,4-9.1,10.5-14.9c6.5-5.8,13.1-7.8,16.7-8.4
			c3.6-0.6,14.6-1.3,19.2,0.7c4.5,2,5.5,2,5.5,2s2.2,1.3,3.1-0.6c0.8-1.9,1.6-2.9,1.6-2.9s1.5-2.7,2.9,0.3c1.4,2.9,3,6.3,4.4,8.3
			c1.4,2,3.6,6.5,4.5,8.2c0.9,1.7,1.7,2.9,2.2,3.9c0.5,1,2.4,3.5-1.1,3.8c0,0-7.7,0.1-10.8,0.6c-3.1,0.4-9.7,0.8-12.9,0.9
			c-3.2,0.1-2.8-1.1-1.8-2.9c1-1.7,1.6-3.3,1.6-3.3s1.7-2.4-0.9-3.1c-2.6-0.7-8.2-2.4-13.6-1.3c-5.4,1.1-12.6,6.4-15,10.6
			c-2.4,4.2-3.6,7.4-3.8,10.4c-0.1,3-0.8,2.6-2.6,2.6C39.1,221.4,33.5,220.9,30.8,221.4z"/>
		<path class="st0" d="M102.8,219.1c0,0,2.9-0.8,2.9,2.3c0,3.1-0.1,4.3-0.5,6.4c-0.3,2.2-2.9,10.6-5.4,14.2
			c-2.5,3.6-6.7,10.7-17.8,15c-11.1,4.3-18.8,2.9-22.8,2.2c-4-0.7-10.3-4-11-4.2c-0.7-0.2-2.3-0.6-3.2,0.8c-0.9,1.5-2.1,3.3-2.1,3.3
			s-1.7,1.9-3-0.9c-1.3-2.8-2.7-7.1-4.9-11.4c-2.2-4.3-5-9.5-5.3-10.7c-0.3-1.2-1.4-2,1.7-2.7c0.3-0.1,5.4-0.3,9.8-0.1
			c4.3,0.2,9.6,0.5,11.7,0.5c2.1,0,6.3,0,4.7,2.4c-1.7,2.4-1.6,3-1.6,3s-1.7,2.3,0.7,3.3c2.4,1,11.9,3.4,17.6,1
			c5.9-2.4,10.7-5.2,13.1-10.1c2.4-4.9,3.2-9.5,3.3-11c0.1-1.5,0.2-3,2.5-3.1C95.5,219.3,101.8,219.3,102.8,219.1z"/>
	</g>
	<path class="st1" d="M219.4,216.1c-1.3,0.1-1.3,0.9-1.3,1.4c0.1,2.9,0.1,5.9,0.1,7.7c0,1.4-3.1,1-4.3,1c-1.2,0-2.4,0.2-2.4-0.8
		c0.1-1.7,0-5.4-0.1-8c0-0.8-0.3-1.3-1.3-1.3c-2.4-0.1-5,0.1-7.9,0c-0.8,0-1.8-0.3-1.5-1c1.4-3.4,2-6.3,3.2-9.8
		c0.6-1.7,1.4-3.3,1.9-5c2.2-7.1,4.6-13.8,6.8-20.9c0.3-1,0.6-2,1-3c0.3-0.7,0.5-2.1,1.2-2.1c0.9,0,1,1,1.2,1.7
		c0.2,0.6,0.4,1.4,0.6,2c0.5,1.5,1,2.8,1.5,4.4c0.5,1.6,1.1,3,1.6,4.7c0.9,3,2.3,6,3.5,8.9c0.6,1.5,1.2,3,1.7,4.6
		c0.4,1.6,1,3.1,1.5,4.7c1,3.2,1.5,6,2.7,8.9c0.2,0.4,0.5,1.6-0.3,1.7c-0.6,0-1.4,0-2,0C224,215.7,221.6,216.2,219.4,216.1z"/>
	<path class="st1" d="M174.4,209.3c0,3.5-0.2,9.7-0.1,12.2c0,1.4,0.3,3.9-0.2,4.6c-0.4,0.5-2.9,0.3-3.6,0.3c-1.3,0-2.1-0.4-2.1-1.4
		c0-4,0-11.1,0-16c0-1.1-1-1.2-1-1.2c-4.6-1.1-7.9-3.3-10.3-6.4c-3-4-4.7-10.7-2.4-16.3c1.7-4.1,4.7-7.3,8.7-9.3
		c2.8-1.4,6.1-2.2,10-1.7c3.5,0.5,5.5,1.4,7.7,3.1c1,0.7,2.1,1.4,2.9,2.2c2.7,2.6,4.4,6.5,4.6,11.1c0.1,1.2-0.3,2.3-0.5,3.5
		c-0.2,1-0.2,1.9-0.4,2.6c-0.5,2-1.8,4.1-3.1,5.5c-2,2.4-4.9,3.8-7.6,5.2c-0.4,0.1-0.8,0.3-1.1,0.4
		C175.9,207.7,174.4,208,174.4,209.3z"/>
	<g>
		<path class="st2" d="M480.6,302.6c0,0,4.5-0.1,4.8-4.1c0.2-4-0.7-10-0.2-13.8c0.4-3.9-0.7-5.9-4.2-6.2c-3.5-0.3-19.1,0.1-23.5,1.3
			c-4.4,1.2-11.4,1.8-17.2,7c-5.8,5.2-10.1,9.5-12.7,15.3c-2.7,5.8-8.8,15-11.6,19.9c-2.8,5-7.3,14.3-10.8,17.8
			c-3.5,3.5-7.8,5.8-11.6,6.2c-3.8,0.3-3.4-0.1-6.3-0.1c-2.9,0-4-2-3.9-5.1c0.1-3.1,0-4.8,0-4.8s-0.1-4.2-4-1.4
			c-3.9,2.8-12.7,8.3-16.8,10.9c-4.1,2.6-12.1,7.1-14.8,9c-2.8,1.9-4.8,4-0.3,6.6c4.4,2.7,14.3,9.3,17.8,11.6
			c3.5,2.3,11.3,7.1,12.9,8.1c1.5,1,5.5,2,5.4-2.5l-0.1-3.8c0,0-0.1-5,4.8-4.7c4.9,0.3,8.8,0.1,13.9-1.2c5.1-1.3,15.4-5.3,19.7-11.2
			c4.3-5.9,9.8-15.1,12.7-19.4c3-4.3,10-17,11.5-19.7c1.6-2.8,4.1-10.7,10.3-13.2C462.4,302.6,477.2,302.3,480.6,302.6z"/>
		<path class="st2" d="M485,365.7c0,0,0.7,4.4-4.2,4.3c-4.9-0.1-12.9-0.4-16.8-0.4c-4,0-11.9-1.4-15-2.9c-3.1-1.4-9.2-5.4-11.4-7.2
			c-2.2-1.8-4.1-4.5-2.4-7.1c1.7-2.5,5.8-8.5,6.6-10.5c0.9-2,3.1-6.1,3.1-6.1s2.2-3.4,4.7,0.9c2.4,4.3,6.1,7.9,11.2,8.4
			c5.1,0.6,16.6,0.7,19.3,0.6c2.7-0.1,5.2,1.2,5.2,4.3C485.2,353.1,484.5,360.3,485,365.7z"/>
		<path class="st2" d="M412.3,312.4c0,0-2.1,3.8-4.2,0.6c-2.1-3.2-3.2-5.3-6-7.1c-2.8-1.8-7.1-3.1-10.6-3.1c-3.5,0-1.6-0.1-4.2-0.2
			c-2.7-0.1-4.2,1.9-4.1,3.8c0.1,1.9,0.2,3.9,0.1,5.5c-0.1,1.7-0.7,4-4,1.8c-3.3-2.2-10.8-7.9-14.3-9.8c-3.5-1.9-15-8.6-18.4-10.9
			c-3.4-2.2-2.6-4.3-0.2-5.9c2.3-1.6,11-6.4,14.4-8.8c3.4-2.3,16.1-9.5,18.3-11.3c2.2-1.8,4.3-0.6,4.2,2.3c0,0,0.2,4.5,0.2,5.7
			c0,1.1,0.9,3.7,4.1,3.3c3.2-0.3,8.4,0.1,12.5,1.2c4.1,1.1,16.4,5.6,20.2,10.3c3.8,4.7,2.8,4.8,1.1,7.2
			C419.8,299.5,414.7,307.6,412.3,312.4z"/>
	</g>
	<rect x="134" y="243" class="st1" width="177" height="75"/>
	<g>
		<path class="st0" d="M229.5,268.4c0,2.6-0.1,6.1,0,8.3c0,0.5-0.4,0.8-1.2,0.8c-0.6,0-1.5,0-2,0c-7.3,0.1-15.5-0.1-22.5-0.1
			c-1.7,0-1.6-1.6-1.6-1.6c0-2.5-0.1-4.9,0-7.3c0,0,0.1-1.4,1.7-1.5c0.5,0,1.1,0,1.4,0c3.7,0.1,5.2-0.1,8.9-0.1
			c1.1,0,3.4,0.1,4.5,0.1c3.3,0,6.7-0.2,9.5,0C228.1,267.1,229.5,267.1,229.5,268.4z"/>
		<path class="st0" d="M229.5,293.5c0-1.3,0-2.5,0-3.9c0-1.5,0.1-3.1,0.1-4.5c0-1.2-1.8-1.1-3-1.1c-2.8,0-6,0-9.4,0
			c-3.2,0-6.6,0.2-9.6,0.1c-1.4,0-3-0.2-4.3-0.1c-1.4,0-1.3,1.6-1.3,1.6c0,0.9-0.1,1.7,0,2.7c0,0.5,0.1,1.3,0.1,1.9
			c0,1.2-0.1,2.3,0,3.3c0,0,0,1.1,1.4,1.1c2.1,0,4.4,0.1,6.6,0c4.7-0.2,10.7,0,16.1,0.1c0.7,0,1.5,0.1,2.2,0
			C228.5,294.6,229.5,294.6,229.5,293.5z"/>
	</g>
	<path class="st0" d="M289.9,263.4c-0.1-0.7-1.2-0.5-1.8-0.5c-3.5,0.1-7.7,0.2-11.4,0.1c-2.1,0-5.2-0.4-5.7,0.4
		c-0.3,0.6-0.1,1,0.2,1.5c1.5,1.5,2.4,2.7,3.8,4.4c0.5,0.5,0,1.1-0.3,1.3c-1.8,1.6-3.1,2.4-4.9,4c-0.7,0.5-1.1,0.3-1.6,0
		c-6.2-3.3-13.6-0.4-16.6,4.2c-0.9,1.3-1.9,2.9-2,4.9c-0.2,2.4-0.1,4.9,0.7,7.1c1.4,3.4,4.7,6.8,8.1,7.7c1.9,0.5,4.3,0.3,5.8,0.1
		c2.6-0.4,4.1-0.8,5.6-2c0.4-0.3,0.9-0.8,1.3-1.1c3.5-2.9,5.4-9,3.7-13.7c-0.1-0.3-0.4-0.9,0.3-1.4c2.1-1.5,2.4-2.3,4.6-3.6
		c1.3-0.9,1.2-0.4,1.9,0.4c0.8,0.9,1.6,1.8,2.3,2.8c0.4,0.5,0.5,1.1,1.3,1c0.5-0.1,0.7-0.6,0.9-1.1c0.1-0.3,0.4-1,0.4-1.5
		c0.1-0.5,0.4-1,0.5-1.7c0.3-2.1,0.7-3.6,1.4-6.1C289.2,267.7,290.1,264.9,289.9,263.4z"/>
	<path class="st0" d="M173.4,289.9c1.9,0,3.6-0.2,5.8,0c0.4,0,1.1,0.4,1.1,1.3c0,1.5-0.1,3.7-0.1,5.2c0,1-0.8,1.3-1.3,1.3
		c-1.7,0.1-3.8-0.1-5.6,0c-0.6,0-1.1,0.3-1.1,0.9c0,2.1-0.1,3.1-0.1,5.3c0,0.7-0.7,1.1-1.4,1.1c-2,0-3.5-0.1-4.9,0
		c-0.9,0-1-0.9-1.1-1.3c-0.2-1.6,0.1-3.4,0-5.1c0-0.4-0.1-0.9-1-0.9c-1.9-0.1-3.8,0-5.5-0.1c-0.3,0-1.3-0.3-1.3-1
		c0-1.7,0-3.7,0.1-5.9c0-0.4,0.4-0.7,1-0.7c0.8,0,2-0.1,2.9,0c0.8,0,1.7,0,3,0c0.6,0,0.9-0.6,0.9-0.9c0.1-2.1-0.1-4.2-0.1-6.1
		c0-1.4-1.5-1.7-1.5-1.7c-1.1-0.5-2.1-1-3.1-1.9c-2.3-2.1-4.8-5.6-4.9-10c0-2.2,1.3-5.4,2.2-6.8c1-1.5,2.1-2.5,3.4-3.6
		c2.3-1.6,5.2-2.2,9.1-2.2c2.8,0,4.5,0.9,6.3,2.1c0.4,0.2,1.4,1.2,1.6,1.4c2.3,1.9,4.4,8.4,2.8,12.8c-0.3,0.9-1.3,3-1.9,3.8
		c-0.3,0.4-1.1,1.6-1.5,2.1c-1,1-2.1,1.7-3.6,2.2c-0.8,0.3-1.5,0.7-1.6,1.6c0.1,2.4,0,4.2,0,6.1C172.2,288.7,172,289.9,173.4,289.9z
		"/>
	<path class="st1" d="M484.9,128.6c9.5-0.3,14.8,4.3,16.5,11.8c0.8,3.8-0.4,7-2,9.5c-1.3,2-3.3,3.7-5.4,4.6
		c-0.6,0.2-1.8,0.5-2.6,0.7c-0.8,0.2-2.6,0.5-3.2,0.5c-3.1,0.1-5.6,0.2-8.8,0.1c-3.1-0.1-6.5,0.3-10.1,0.3c-7.1,0-15-0.1-19.5-3.5
		c-0.5-0.4-1.5-1.1-2.1-1.9c-1.5-1.9-2.6-4.7-2.9-7.4c-0.1-1.1,0.1-4.4,0.6-5.3c1.9-3.8,4.4-6.8,8.5-8.3c0,0,1-0.2,1.1-1.6
		c0.5-4.6,2.9-9.1,6.2-11.4c2.1-1.5,5.2-2.3,8.4-2.4c3-0.1,6.1,1.6,8.1,3.2c3,2.3,5.2,5.5,5.8,10.3
		C483.6,127.6,483.5,128.6,484.9,128.6z"/>
	<path class="st0" d="M167.5,27.4c0-1.4,0.1-3.8,0.1-5.1c0-0.4,0-0.9-0.3-1c-0.5-0.3-0.8,0.1-1.2,0.4c-1.2,1.2-2.5,1.8-3.9,2.9
		c-3.4,2.7-5.8,5.5-9.2,7.8c-1.2,1.1-3,2.5-4.3,3.5c-1,0.8,0,1.6,0,1.6c1.4,1.3,2.9,2.4,4.3,3.6c0.5,0.4,1.3,1.3,1.9,1.9
		c0.9,0.9,1.9,1.6,2.9,2.5c1,0.9,2.2,1.7,3.3,2.6c1.5,1.2,3,2.8,4.7,4.1c0.6,0.5,1.2,1.2,1.7,1c0.3-0.1,0.5-0.6,0.5-1.5
		c0-1.4,0-3.3-0.1-4.6c0-1.1,1.3-1,1.3-1c2.7,0.2,54.5,0,57.4,0c1.3,0,3.4,0,4.7-0.1c1.2-0.1,1-1.5,1-1.5c-0.2-2.8,0.1-4.1,0-7.5
		c-0.2-3.3,0-4.3,0-7.1c0,0,0-1.1-1.4-1.1c-3.8,0-58.7,0-62.3,0C168.6,28.6,167.5,28.8,167.5,27.4z"/>
	<g>
		<path class="st1" d="M412.4,21.3c-3.5-0.2-5.6,2.7-8.2,5.7c-2.6,3-7.5,8.8-10.9,12.9c-3.4,4.1-7.6,8.6-7.6,8.6
			c-1.1,1.3-0.7,2.2,0.1,3c0.8,0.8,2.1,1.8,3.6,3.4c1.5,1.6,2.4,0.4,4.8-1.7c2.4-2.1,13-12.6,18.4-17.6c5.3-5,5.6-6.1,5.8-8.6
			C418.6,24.6,415.9,21.5,412.4,21.3z"/>
		<path class="st1" d="M384.1,54.2c0,0-2.1-2-4.3-0.5c-2.7,1.8-6.4,5.2-7.9,8.6c-1.6,3.4-3.6,3.8-6.7,4c-3.1,0.2-2.6,2-0.6,3.5
			c2,1.5,6.2,3.7,10.5,3.2c4.3-0.5,8.8-1.8,10.6-4.8c1.7-2.9,2.5-4.5,2.6-6.5c0.1-2-0.1-3.4-1.7-5.1C385,55,384.1,54.2,384.1,54.2z"
			/>
	</g>
	<g>
		<path class="st1" d="M314.8,31.6c-2.4,2.5-5.2,5.2-7.5,7.6c-6.9,7.1-13.7,13.6-20.6,20.6c-0.4,0.4-0.7,0.8-1.1,1.2
			c-2.2,2-4.4,4.1-6.5,6.3c0,0-1.7,1.8-3.1,0.4l-6.5-6.5c0,0-1.7-1.2,0.1-3c6.1-6,12.5-12.5,18.7-18.5c1.3-1.3,2.6-2.5,3.8-3.7
			c1.2-1.3,2.4-2.5,3.6-3.7c1.8-1.8,3.5-3.6,5.6-5.6c0.8-0.7,3.1-3.2,4.7-4.7c0,0,1.2-1.3,2.6,0c1.1,1,2.7,2.8,3.3,3.4
			c1.3,1.3,2.7,2.5,3.6,3.5C315.6,28.8,316.6,29.7,314.8,31.6z"/>
		<path class="st1" d="M265.9,73c2.2-0.5,4.8-0.8,7.1-1.2c1.9-0.4,1.4-1.5,0.7-2.1c-0.6-0.6-1.4-1.5-1.4-1.5c-1-1.1-4.2-4.1-5.5-5.4
			c-1.3-1.3-1.5,1.4-1.5,1.4c-0.2,2.3-0.7,4.7-1.1,6.9C264.2,71,263.6,73.5,265.9,73z"/>
	</g>
	<g>
		<path class="st1" d="M351.9,52.3c1.4-1.3,1.6-1.5,2.9-2.7c1.3-1.3,5.5-5.4,7.1-7.1c0.9-0.9,2.3-2.3,3.3-3.4
			c1.1-1.1-0.3-2.5-0.3-2.5c-2.1-2.3-4.4-4.4-7.1-7.2c-1.2-1.3-3.4-3.4-5-4.8c-0.6-0.5-1.3-1.2-2-2c-0.7-0.7-1.5-1.7-2.5-1.6
			c-0.5,0.1-0.9,0.8-1.4,1.3c-1.5,1.5-2.8,2.6-4.1,3.9c-2.6,2.5-6.1,5.8-8.3,8.1c0,0-1.4,1.1-0.4,2.2c1.1,1.1,6.1,6.3,7.9,8
			c1.7,1.6,6.6,6.8,7.6,7.7C350.6,53.1,351.2,52.9,351.9,52.3z"/>
		<path class="st1" d="M348.1,55.9c-0.7,0.7-1.7,1.8-2.4,1.9c-0.7,0-1.4-0.8-1.9-1.1c-4.3-2.5-7.5-0.1-10.1,2
			c-2.3,2-4.3,5.5-6.6,7.9c-0.9,1-2.7,2.7-4,3.6c-1.9,1.4-3.4,2.5-6,2.9c-1.5,0.3-2.1,0.5-3-0.5c-0.9-1-0.7-2.3-0.6-2.8
			c0.6-3.1,2.4-5.5,4.2-7.6c1.5-1.7,3.3-3.5,5.2-4.9c1.9-1.5,4.3-2.6,5.7-4.3c1.1-1.3,2-3.4,2.2-5.3c0.2-2.1-0.3-3.7-1-4.9
			c-0.2-0.4-0.4-0.7-0.7-1.2c-0.4-0.6-0.4-1.4,0.6-2.3c0.3-0.3,0.5-0.6,0.8-0.8c0,0,1-0.9,1.9-0.1c0.9,0.8,3.4,3.6,5.2,5.4
			c1.9,1.8,9.2,9.3,10.4,10.5C349.1,55.3,348.1,55.9,348.1,55.9z"/>
	</g>
	<rect x="428" y="4" class="st1" width="88" height="88"/>
	<path class="st0" d="M471.7,32.1c1.9-2.2,4.7-4.7,7.6-5.6c5.5-1.7,10.7,0.5,13.9,3.3c0.7,0.6,1.7,1.6,2.2,2.3
		c1.5,2.1,2.4,5.2,2.5,8.3c0.1,3.2-1.4,6.5-2.8,8.7c-1.5,2.5-3.5,4.1-5.4,6.4c-0.9,1.1-2.2,2.6-3.3,3.8c-2.9,3.3-5.2,6.3-8.3,9.7
		c-0.9,0.9-2.4,2.5-3.4,3.6c-0.8,0.9-2,2.1-2.9,2.9c-0.8,0.8-1.5,0.7-2,0.1c-3.7-4.3-7.7-8.8-11.5-13.5c-1.8-2.2-3.8-4.3-5.5-6.5
		c-1.8-2.3-3.9-4.4-5.3-6.6c-1.1-1.9-2.5-4.6-2.5-6.7c-0.1-4.7,0.6-7.8,2.9-10.5c2.4-2.5,4.7-4.5,8.2-5.2c6.1-1.3,11.5,1.8,14.3,5.8
		C470.4,32.1,471,32.9,471.7,32.1z"/>
	<path class="st1" d="M471.6,41.7c0.8-0.9,2-2,3.2-2.4c2.3-0.7,4.5,0.2,5.9,1.4c0.3,0.3,0.7,0.7,0.9,1c0.6,0.9,1,2.2,1.1,3.5
		c0,1.3-0.6,2.7-1.2,3.7c-0.7,1.1-1.5,1.7-2.3,2.7c-0.4,0.5-1,1.1-1.4,1.6c-1.2,1.4-2.2,2.7-3.5,4.1c-0.4,0.4-1,1-1.4,1.5
		c-0.3,0.4-0.9,0.9-1.2,1.2c-0.3,0.3-0.6,0.3-0.9,0c-1.6-1.8-3.3-3.8-4.9-5.7c-0.8-0.9-1.6-1.8-2.4-2.8c-0.8-1-1.7-1.9-2.3-2.8
		c-0.5-0.8-1-1.9-1.1-2.9c-0.1-2,0.3-3.3,1.2-4.5c1-1.1,2-1.9,3.5-2.2c2.6-0.5,4.9,0.8,6.1,2.4C471,41.7,471.3,42.1,471.6,41.7z"/>
	<path class="st0" d="M191.2,354.4c-6.4-7-12-8.7-17.8-8.5c0,0-11.4,0.4-16.1,8.7c-4.7,8.3-4,16-0.6,22.1c3.4,6.1,12.5,20.1,14,23
		c1.5,3,2.4,4.3,2.4,4.3s1.2,2.1,3-0.8c1.8-2.9,4.4-7.5,6.3-11.3c1.9-3.8,8.3-11.3,10.3-16.1C194.6,371,197.5,361.3,191.2,354.4z
		 M179.2,373.3c-4.8,2.7-9,1.2-11.2-1.1c-2.2-2.4-3.4-5.9-2-9.9c0,0,2.5-5.6,8-5.5c5.5,0.1,8.4,4.3,8.8,6.4
		C183.3,365.4,184,370.5,179.2,373.3z"/>
	<g>
		<path class="st1" d="M200.2,477.4c-1.6-0.9-3-2-4.4-3.2c-1.5-1.2-2.8-2-3.8-5.1c-1-3.1-0.3-6.2,0.2-6.9c0.5-0.7,2.1-2,2.9-2.5
			c0.9-0.6,1.8-1.2,3.1-1.5c1.3-0.3,1-1.2,0.7-1.6c-0.3-0.4-1.5-2-2.3-3.1c-0.8-1.1-1.5-1.2-2.2-1.1c-0.8,0.1-2,1.2-2.7,2
			c-0.7,0.9-1.7,1.8-2.4,2.3c-0.8,0.5-2,0.6-2.9,0.5c-0.9-0.1-2-0.8-1.6-2.2c0.4-1.4,0.1-2.5-0.2-3.1c-0.4-0.6-0.9-1-1.1-1.5
			c-0.2-0.5-0.7-0.7-1.2-1c-0.5-0.3-1-0.7-0.9-1.5c0.1-0.8,0.6-1.4,0.9-2.3c0.3-1,0.1-1.2-0.8-1.5c-0.9-0.2-5.2-1-8-1
			c-2.8,0.1-2.8,0-7.6,1.2c-4.8,1.2-8.8,4.5-8.8,4.5c-1.5,1.3-0.7,1.7,0.6,1.7c1.3,0,2.3,1.5,3.1,2.2c0.8,0.7,2.4,0.7,3.9,0.3
			c1.5-0.4,1.6-1.4,2.9-1.7c1.3-0.3,1.8,0.2,3.2,0.3c1.4,0,1.8-1,2.9-1c1.1-0.1,1.3,0.5,0.8,2c-0.5,1.5-2.2,1.3-3.3,1.8
			c-1.1,0.5-1.3,1.7-1,2.5c0.4,0.9,0.8,1.9,2.1,2c1.3,0.1,1.3-1.3,3-3.7c1.7-2.5,3.3-0.5,4.2,0.9s1.6,1.8,0,3.8
			c-1.7,2-3.2,1.6-5.4,2.4c-2.2,0.8-3.2,4-3.8,5c-0.6,1-0.5,2-1.6,2.2c-1.2,0.2-2.4-1.2-3.9-1.3c-1.5-0.2-2.8,0.8-2.9,2
			c-0.1,1.2,1.2,1.9,2.5,1.8c1.4-0.1,1.4,0.7,1.5,1.2c0.1,0.5,0.2,1.2,1.9,1.6c1.7,0.4,3.3,0.7,5.6,0.7c2.3,0,6.6,2.9,7.7,3.8
			c1.2,1,3.2,2.9,3.9,4.3c0.7,1.5-0.4,3.1-1.6,5.4c-1.2,2.3-3.6,4.5-4.6,6.1c-1,1.6-1,2.5-1.5,4.6c-0.5,2.1,1.2,1.7,1.2,1.7l0.2,0.1
			c2.6-0.2,7.5-1.7,11.2-3.9c3.6-2.2,6.8-5.5,8.9-8.4c2.1-3,3.6-6.7,4.2-8.8C203.3,478.7,201.8,478.4,200.2,477.4z"/>
		<path class="st1" d="M173.1,494.9c-0.2-1.9-0.4-3.7-1.2-5.4c-0.8-1.7-3.4-4.5-3.9-6.4c-0.5-2,0.6-3.2,0-4.6
			c-0.6-1.5-2.7-2.1-5.5-3.5c-2.8-1.4-6.5-3.2-7.1-4.9c-0.7-1.7,0-5.1,0.5-6.7c0.6-1.7,0.3-3.8-0.6-4.9c-0.9-1.1-1.9-1.5-3.3-2.2
			c-1.5-0.7-2.3,0.8-2.3,0.8s-2,2.3-3.8,8.4c-1.8,6.1-0.2,12.6,0.2,14c0.4,1.4,1.5,5.4,3.8,9.5c2.3,4,8.5,8.6,12.1,10.4
			c3.5,1.8,9.8,2.8,11.6,2.9c1.8,0.1,1.2-1.1,1.1-1.7C174.2,499.9,173.2,496.8,173.1,494.9z"/>
	</g>
	<g>
		<path class="st1" d="M42.3,294.2c0,0,1.2-0.4,1.2,1c0,1.4,0,5.7-0.2,7c-0.3,1.4-1.5,6.2-1.8,7.5c-0.3,1.3-1.9,5-2.9,6.3
			c-1,1.3-3.4,3.9-4,4.3c-0.5,0.4-5.3,2.3-7.3,2.3c-2,0-4.2,0.2-5.2,0.2c-1,0-1.8-0.1-2.4-0.3c-0.6-0.2-1.1-0.2-1.8,0.3
			c-0.7,0.5-1.4,1.6-2.1,2c-0.7,0.5-1.1,1.2-1.7,0.7c-0.5-0.5-1.4-1.2-1.7-1.5c-0.3-0.3-0.9-0.9-0.2-1.6c0.6-0.7,1.4-1.3,2-1.8
			c0.6-0.5,1.8-1.2,1.4-2.9c-0.5-1.6-0.5-2.3-0.3-4.5c0.2-2.2,0-3.2,0.5-5.4c0.5-2.1,1.1-3.5,2.1-4.8c1-1.3,5.7-5.4,7.1-5.8
			c1.4-0.5,3.5-0.8,4.6-1.3c1.1-0.5,6-1.1,7.5-1.5C38.5,294,42.3,294.2,42.3,294.2z"/>
		<path class="st1" d="M42.3,337.2c0,0,1.2-0.4,1.2,1c0,1.4,0,5.7-0.2,7c-0.3,1.4-1.5,6.2-1.8,7.5c-0.3,1.3-1.9,5-2.9,6.3
			c-1,1.3-3.4,3.9-4,4.3c-0.5,0.4-5.3,2.3-7.3,2.3c-2,0-4.2,0.2-5.2,0.2c-1,0-1.8-0.1-2.4-0.3c-0.6-0.2-1.1-0.2-1.8,0.3
			c-0.7,0.5-1.4,1.6-2.1,2c-0.7,0.5-1.1,1.2-1.7,0.7c-0.5-0.5-1.4-1.2-1.7-1.5c-0.3-0.3-0.9-0.9-0.2-1.6c0.6-0.7,1.4-1.3,2-1.8
			c0.6-0.5,1.8-1.2,1.4-2.9c-0.5-1.6-0.5-2.3-0.3-4.5c0.2-2.2,0-3.2,0.5-5.4c0.5-2.1,1.1-3.5,2.1-4.8c1-1.3,5.7-5.3,7.1-5.8
			c1.4-0.5,3.5-0.8,4.6-1.3c1.1-0.5,6-1.1,7.5-1.5C38.5,337.1,42.3,337.2,42.3,337.2z"/>
		<path class="st1" d="M42.3,380.3c0,0,1.2-0.4,1.2,1c0,1.4,0,5.7-0.2,7c-0.3,1.4-1.5,6.2-1.8,7.5c-0.3,1.3-1.9,5-2.9,6.3
			c-1,1.3-3.4,3.9-4,4.3c-0.5,0.4-5.3,2.3-7.3,2.3c-2,0-4.2,0.2-5.2,0.2c-1,0-1.8-0.1-2.4-0.3c-0.6-0.2-1.1-0.2-1.8,0.3
			c-0.7,0.5-1.4,1.6-2.1,2c-0.7,0.5-1.1,1.2-1.7,0.7c-0.5-0.5-1.4-1.2-1.7-1.5c-0.3-0.3-0.9-0.9-0.2-1.6c0.6-0.7,1.4-1.3,2-1.8
			c0.6-0.5,1.8-1.2,1.4-2.9c-0.5-1.6-0.5-2.3-0.3-4.5c0.2-2.2,0-3.2,0.5-5.3c0.5-2.1,1.1-3.5,2.1-4.8c1-1.3,5.7-5.3,7.1-5.8
			c1.4-0.5,3.5-0.8,4.6-1.3c1.1-0.5,6-1.1,7.5-1.5C38.5,380.2,42.3,380.3,42.3,380.3z"/>
		<path class="st1" d="M118.8,294.2c0,0,1.2-0.4,1.2,1c0,1.4,0,5.7-0.2,7c-0.3,1.4-1.5,6.2-1.8,7.5c-0.3,1.3-1.9,5-2.9,6.3
			c-1,1.3-3.4,3.9-4,4.3c-0.5,0.4-5.3,2.3-7.3,2.3c-2,0-4.2,0.2-5.2,0.2c-1,0-1.8-0.1-2.4-0.3c-0.6-0.2-1.1-0.2-1.8,0.3
			c-0.7,0.5-1.5,1.6-2.1,2c-0.7,0.5-1.1,1.2-1.7,0.7c-0.5-0.5-1.4-1.2-1.7-1.5c-0.3-0.3-0.9-0.9-0.2-1.6c0.6-0.7,1.4-1.3,2-1.8
			c0.6-0.5,1.8-1.2,1.4-2.9c-0.5-1.6-0.5-2.3-0.3-4.5c0.2-2.2,0-3.2,0.5-5.4c0.5-2.1,1.1-3.5,2.1-4.8c1-1.3,5.7-5.4,7.1-5.8
			c1.4-0.5,3.5-0.8,4.6-1.3c1.1-0.5,6-1.1,7.5-1.5C115,294,118.8,294.2,118.8,294.2z"/>
		<path class="st1" d="M118.8,337.2c0,0,1.2-0.4,1.2,1c0,1.4,0,5.7-0.2,7c-0.3,1.4-1.5,6.2-1.8,7.5c-0.3,1.3-1.9,5-2.9,6.3
			c-1,1.3-3.4,3.9-4,4.3c-0.5,0.4-5.3,2.3-7.3,2.3c-2,0-4.2,0.2-5.2,0.2c-1,0-1.8-0.1-2.4-0.3c-0.6-0.2-1.1-0.2-1.8,0.3
			c-0.7,0.5-1.5,1.6-2.1,2c-0.7,0.5-1.1,1.2-1.7,0.7c-0.5-0.5-1.4-1.2-1.7-1.5c-0.3-0.3-0.9-0.9-0.2-1.6c0.6-0.7,1.4-1.3,2-1.8
			c0.6-0.5,1.8-1.2,1.4-2.9c-0.5-1.6-0.5-2.3-0.3-4.5c0.2-2.2,0-3.2,0.5-5.4c0.5-2.1,1.1-3.5,2.1-4.8c1-1.3,5.7-5.3,7.1-5.8
			c1.4-0.5,3.5-0.8,4.6-1.3c1.1-0.5,6-1.1,7.5-1.5C115,337.1,118.8,337.2,118.8,337.2z"/>
		<path class="st1" d="M118.8,380.3c0,0,1.2-0.4,1.2,1c0,1.4,0,5.7-0.2,7c-0.3,1.4-1.5,6.2-1.8,7.5c-0.3,1.3-1.9,5-2.9,6.3
			c-1,1.3-3.4,3.9-4,4.3c-0.5,0.4-5.3,2.3-7.3,2.3c-2,0-4.2,0.2-5.2,0.2c-1,0-1.8-0.1-2.4-0.3c-0.6-0.2-1.1-0.2-1.8,0.3
			c-0.7,0.5-1.5,1.6-2.1,2c-0.7,0.5-1.1,1.2-1.7,0.7c-0.5-0.5-1.4-1.2-1.7-1.5c-0.3-0.3-0.9-0.9-0.2-1.6c0.6-0.7,1.4-1.3,2-1.8
			c0.6-0.5,1.8-1.2,1.4-2.9c-0.5-1.6-0.5-2.3-0.3-4.5c0.2-2.2,0-3.2,0.5-5.3c0.5-2.1,1.1-3.5,2.1-4.8c1-1.3,5.7-5.3,7.1-5.8
			c1.4-0.5,3.5-0.8,4.6-1.3c1.1-0.5,6-1.1,7.5-1.5C115,380.2,118.8,380.3,118.8,380.3z"/>
		<path class="st1" d="M52.6,411.8c0,0-1.2,0.4-1.2-1c0-1.4,0-5.7,0.2-7c0.3-1.4,1.5-6.2,1.8-7.5c0.3-1.3,1.9-5,2.9-6.3
			c1-1.3,3.4-3.9,4-4.3c0.5-0.4,5.3-2.3,7.3-2.3c2,0,4.2-0.2,5.2-0.2c1,0,1.8,0.1,2.5,0.3c0.6,0.2,1.1,0.2,1.8-0.3
			c0.7-0.5,1.5-1.6,2.1-2c0.7-0.5,1.1-1.2,1.7-0.7c0.5,0.5,1.4,1.2,1.7,1.5c0.3,0.3,0.9,0.9,0.2,1.6c-0.6,0.7-1.4,1.3-2,1.8
			c-0.6,0.5-1.8,1.2-1.4,2.9c0.5,1.6,0.5,2.3,0.3,4.5c-0.2,2.2,0,3.2-0.5,5.3c-0.5,2.1-1.1,3.5-2.1,4.8c-1,1.3-5.7,5.3-7.1,5.8
			c-1.4,0.5-3.5,0.8-4.6,1.3c-1.1,0.5-6,1.1-7.5,1.5C56.4,411.9,52.6,411.8,52.6,411.8z"/>
		<path class="st1" d="M52.6,368.7c0,0-1.2,0.4-1.2-1c0-1.4,0-5.7,0.2-7c0.3-1.4,1.5-6.2,1.8-7.5c0.3-1.3,1.9-5,2.9-6.3
			c1-1.3,3.4-3.9,4-4.3c0.5-0.4,5.3-2.3,7.3-2.3c2,0,4.2-0.2,5.2-0.2c1,0,1.8,0.1,2.5,0.3c0.6,0.2,1.1,0.2,1.8-0.3
			c0.7-0.5,1.5-1.6,2.1-2c0.7-0.5,1.1-1.2,1.7-0.7c0.5,0.5,1.4,1.2,1.7,1.5c0.3,0.3,0.9,0.9,0.2,1.6c-0.6,0.7-1.4,1.3-2,1.8
			c-0.6,0.5-1.8,1.2-1.4,2.9c0.5,1.6,0.5,2.3,0.3,4.5c-0.2,2.2,0,3.2-0.5,5.4c-0.5,2.1-1.1,3.5-2.1,4.8c-1,1.3-5.7,5.4-7.1,5.8
			c-1.4,0.5-3.5,0.8-4.6,1.3c-1.1,0.5-6,1.1-7.5,1.5C56.4,368.9,52.6,368.7,52.6,368.7z"/>
		<path class="st1" d="M52.6,325.6c0,0-1.2,0.4-1.2-1c0-1.4,0-5.7,0.2-7c0.3-1.4,1.5-6.2,1.8-7.5c0.3-1.3,1.9-5,2.9-6.3
			c1-1.3,3.4-3.9,4-4.3c0.5-0.4,5.3-2.3,7.3-2.3c2,0,4.2-0.2,5.2-0.2c1,0,1.8,0.1,2.5,0.3c0.6,0.2,1.1,0.2,1.8-0.3
			c0.7-0.5,1.5-1.6,2.1-2c0.7-0.5,1.1-1.2,1.7-0.7c0.5,0.5,1.4,1.2,1.7,1.5c0.3,0.3,0.9,0.9,0.2,1.6c-0.6,0.7-1.4,1.3-2,1.8
			c-0.6,0.5-1.8,1.2-1.4,2.9c0.5,1.6,0.5,2.3,0.3,4.5c-0.2,2.2,0,3.2-0.5,5.4c-0.5,2.1-1.1,3.5-2.1,4.8c-1,1.3-5.7,5.3-7.1,5.8
			c-1.4,0.5-3.5,0.8-4.6,1.3c-1.1,0.5-6,1.1-7.5,1.5C56.4,325.8,52.6,325.6,52.6,325.6z"/>
	</g>
	<path class="st1" d="M378.5,137c-0.4,0.5-0.9,1-1.4,1.5c-1.1,1.1-2.1,2.2-3.3,3.3c-2.1,2.1-4.3,4.3-6.6,6.4
		c-1.6,1.5-3.3,2.9-4.6,4.7c-0.4,0.5-0.8,0.9-1.5,1.5c-0.3,0.3-1,1.3-1.6,1.3c-0.4,0-1.2-0.9-1.5-1.3c-2.8-3.1-6.3-6.3-9.1-9.2
		c0,0-0.7-0.7,0.1-1.4c0.7-0.7,1.4-1.4,2.2-2.2c0.5-0.5,1-1.2,1.5-1.5c0.4-0.2,0.9-0.3,1.4,0c1.7,1.7,3.4,3.3,5.2,4.9
		c0,0,0.6,0.6,1.4-0.1c4.5-4,8.6-8.6,13-12.7c0,0,0.5-0.5,1.1,0c0.4,0.4,0.8,0.9,1.2,1.3c0.8,0.9,1.7,1.5,2.5,2.3
		C378.4,135.8,379.1,136.3,378.5,137z"/>
	<path class="st1" d="M478.9,198c2.2-3.9,4.8-8.5,6.9-12.7c0.3-0.6,0.8-1.8,1-2.2c0.4-1.1-1.3-0.9-2.3-0.9c-1.8,0.1-3.4,0-5.1,0
		c-0.9,0-0.9-0.6-0.7-0.9c1.7-3.5,4.6-7.4,6.5-10.6c0.7-1.1,1.9-3.4,2.4-4.7c0.3-0.7,0.4-1.4-0.5-1.4c-1.4,0-2.8-0.2-5.2,0
		c-1.4,0.1-4.2,0.2-5.8,0.2c-1.7,0-6.2-0.2-8.5-0.1c-0.8,0-1.4,0.7-1.6,1c-0.2,0.4-0.9,1.4-1.3,2.2c-3.5,6.3-7.3,12.7-10.4,18.9
		c-0.2,0.5-1.2,2,0.1,2c2.2-0.1,3.7,0,6.2,0.1c1.4,0.1,1.1,0.9,0.9,1.3c-1.6,3.5-3.9,7.3-5.8,10.9c-0.5,1-1.6,3.1-2.1,4.2
		c-0.3,0.6,0.2,1.1,1.1,1.1c2.2,0.1,4-0.2,6.7,0c0.8,0,1.2,0.5,0.9,1c-1.8,3.5-3.7,6.9-5.3,10.6c-0.6,1.5-1.4,3.3-2.1,4.6
		c-0.3,0.7-0.2,1.1,0.4,1.2c0.9,0,1.5-0.6,2-1c0.6-0.5,1.3-1,1.9-1.5c3.7-3.3,7.9-5.8,11.7-8.9c1.2-1,2.5-2.2,3.7-3.1
		c2.7-2.1,5.1-4,7.7-6c0.9-0.7,2.2-1.7,3.2-2.6c0.4-0.3,0.7-1.2-0.5-1.3c-1.9-0.2-3.5-0.2-5.4-0.3
		C479.4,199.2,478.3,199.2,478.9,198z"/>
	<path class="st1" d="M288.8,378c0-3.6,0.2-8.9,0.2-12.8c0-1.9,0.1-3.8,0-5.8c-0.2-5.3,0-11.8,0-16.9c0-0.9,0-1.3-0.8-1.4
		c-4.4-0.3-8.4,0.7-11.9,2.1c-3.4,1.4-6.6,3-9.2,5.2c-0.4,0.3-0.5,0.4-0.9,0.4c-0.4,0-0.8-0.1-1.5-0.1c-0.7,0-1.2,0.1-1.7,0.1
		c-0.5,0-0.8-0.4-0.8-0.4c-4.2-3-8.9-5.6-14.9-6.8c-1.1-0.2-3.4-0.6-5.2-0.7c-0.9-0.1-1.6,0-1.9,0.4c-0.5,0.8-0.3,1.3-0.3,2.1
		c0,1.3,0.1,3.5,0.1,4.8c0,9.8,0.6,20.2,0.6,29.5c0,0,0,1.1,1.4,1.2c3,0.1,5.5,0.9,8.7,1.8c2.5,0.8,4.9,1.5,6.5,2.4
		c1.3,0.7,2.8,1.8,4.2,2.7c0,0,0.6,0.4,1.4,0.4c0.8,0,1-0.1,1.8-0.1c0.8,0,1.3,0.1,1.5,0.1c0.5,0,0.9-0.1,1.3-0.4
		c1.2-0.8,2.3-1.5,3.8-2.4c3.6-2.1,8.5-3.9,13.2-4.4c0.3,0,1.9-0.1,2.9-0.3C287.5,378.9,288.8,379,288.8,378z"/>
	<rect x="219" y="407" class="st1" width="174" height="109"/>
	<path class="st1" d="M474.3,478c6.9-5.6,12.6-12.1,12.5-24.5c-0.1-5.5-2.4-10.9-4.8-14.3c-4-5.5-12.6-11.8-20.9-12.5
		c-5.1-0.4-10.3,0.6-14.2,2.3c-8.9,4-14.4,10.6-17,20.4c-1,3.8-2.1,8.9-2.4,13.2c0,0.5-0.3,1.6,1,1.8c1.2,0.2,2.7,0.1,4.2,0.3
		c0.6,0.1,1.8,0,1.8,1.2c-0.1,4.1-1.2,8.9-0.3,12.7c1.2,5.4,5.5,6.2,11.4,6.8c1.2,0.1,1.3,0.6,1.3,1.4c0.1,3-0.2,4.1,0,6.8
		c0,0.8,0.9,1.2,1.4,1.3c7.9,0.3,16.1-0.2,24.2,0.1c1-0.1,1.2-1,1.2-1.5c0.1-0.8-0.1-1.6-0.1-2.5c-0.2-3.4,0.1-7.4,0-11.2
		C473.5,479.9,473.4,478.8,474.3,478z"/>
	<path class="st0" d="M457.3,465.3c0,0.8,0,1.6,0,2.6c0,0.7-0.1,3.2,0.3,3.4c0.4,0.2,0.9-0.3,1.2-0.6c1.9-1.8,2.8-2.8,4.2-4.7
		c0.4-0.6,1.6-1.9,2.1-2.2c0.3-0.2,0.7-0.4,1.1-0.5c1.3-0.4,2.5-1.6,3.2-2.3c1.5-1.6,3.2-4.1,3.1-6.6c0-2.1-0.3-3.3-1-4.8
		c-0.6-1.2-1.3-2-2.1-2.9c-0.9-1-1.5-1.7-2.8-2.3c-1.8-0.9-3.6-1-6-1.2c-1.4-0.1-3-0.2-4.4-0.1c-3.4,0.2-6.6,0.6-9,2.1
		c-0.6,0.4-1.2,1.1-1.8,1.7c-1.1,1.2-1.6,2.1-2.2,3.7c-0.2,0.6-0.4,1.5-0.5,2.1c-0.3,2.1,0.4,4.4,1.3,6c0.1,0.2,0.4,0.8,0.6,1
		c0.5,0.8,0.6,0.9,1.2,1.4c0.9,0.8,1.3,1.1,1.9,1.5c0.4,0.3,0.8,0.6,1.2,0.8c2,1.1,4.4,0.7,7.3,0.9
		C456.1,464.3,457.2,464.2,457.3,465.3z"/>
	<path class="st0" d="M240.5,464c2.1,2.2,4.6,4.1,7,6.1c6.6,5.5,13.3,11.1,20.1,17c0.5,0.4,1.2,1,1.9,1.6c1.1,0.9,1.6,1.1,2.6,0.8
		c0.5-0.1,1.1-0.8,0.9-2.4c-0.2-2.1-0.3-4.9-0.2-6.8c0.1-2.4,0-5.3,0-7.9c0-2.1,2.2-2.1,2.2-2.1c4.9-0.1,10.3-0.1,14.7-0.1
		c2.5,0,4.9,0,7.2-0.1c2.4-0.1,2.2-2.1,2.2-2.1c0.1-1.6,0-3.4,0.1-4.8c0.1-1.8,0.1-4,0-5.9c0,0,0.3-1.9-1.9-1.9
		c-6.7-0.1-15.6-0.1-22.9,0c0,0-1.6,0.1-1.6-1.3c0-5.5-0.1-11.1,0-17.6c0-0.7-0.2-1.1-0.8-1.3c-1.3-0.5-4.1,3.2-5.2,4.2
		c-2,2-4.5,3.7-6.8,5.8c-2.1,2-4.6,3.8-6.8,5.8c-3.4,3-6.7,5.8-10.2,8.7c-0.8,0.7-1.7,1.3-2.4,2C240.6,462,239.4,462.9,240.5,464z"
		/>
	<path class="st0" d="M350.9,474c-3.6-0.1-6.9,0.2-10.2,0.2c-1.2,0-3.2-0.2-4.6,0.2c-0.6,0.2-1.5,1-2.5,1.6
		c-2.9,1.8-5.2,3.8-7.7,5.7c-1.6,1.2-3.6,2.4-5.4,3.5c-1.9,1.2-3.9,2.6-5.4,3.7c-0.7,0.5-1.8,1.6-2.3,1.4c-0.4-0.2-0.4-0.5-0.4-1
		c-0.1-2.8-0.1-4.9-0.2-8.3c-0.2-5.6-0.3-11.4-0.1-17.4c0.2-5.7,0-11.6,0.1-16.9c0.1-2.9-0.1-6.1-0.1-8.9c0-0.6-0.1-1.2,0-1.8
		c0.3-2.1-0.1-3,3.9,0.5c2.9,2.6,5.8,4.7,8.8,6.6c2.7,1.8,7.2,4.8,9.8,7c1,0.8,1.4,1.2,2.2,1.4c1.6,0.4,4.2,0.3,5.9,0.3
		c2.1,0.1,4.5-0.3,6.7-0.2c3.6,0.1,6.4-0.1,9.3,0c1.3,0,3.8,0.1,5.2,0.1c1.9,0,4.2,0,6.3,0c0,0,1.3,0.2,1.3,1.9
		c-0.1,2.9,0.1,5.9-0.1,9.2c-0.2,3.2,0.1,6.5-0.2,9.3c0,0,0,1.8-1.5,1.8c-1.8,0-3.2,0-5,0.1c0,0-1.2,0-1.8,1
		c-2.3,4.1-4.4,9.6-6.7,14.3c-0.6,1.2-1.4,3.7-2.6,4c-1,0.2-1.5-0.2-2.5-0.7c-1.3-0.7-3.4-1.3-4.9-2.1c0,0-1.4-0.7-0.5-2.5
		c2-4.3,4.3-8.7,6.3-13.2C352.1,475.1,352.7,474,350.9,474z"/>
	<path class="st0" d="M101.6,459.5c0-2.4,0.9-5.7-2.4-5.8c-3.4-0.1-7.9,0.2-9,0.2c-1,0-3.3,0.2-3.2-2.1c0.1-2.2-0.1-8.3-0.1-9.3
		c0-1-0.8-1.9-2.3-1.9c-1.5,0-12.4-0.3-18.1-0.3c-5.7,0-18.8,0.4-20.5,0.4c-1.7,0-2.6,0-2.5,2.2c0,0,0.1,7.7,0.2,9.2
		c0.1,1.6-0.1,2-2.4,1.8c-2.3-0.2-6.4,0.1-8.2-0.1c0,0-4.3-0.6-4.1,2.3c0.2,2.9-0.5,12-0.5,15.6c0,3.5,0.6,17.7,0.6,21.1
		c0,3.4-0.6,6.9-0.6,6.9s-0.5,1.9,3,1.7c3.5-0.2,14.3-0.5,19.4-0.5c5.1,0,18.1,0.8,24.1,0.5c6-0.4,21.1-0.1,23.1-0.2
		c2.1-0.1,3.5-0.6,3.5-2.6c0-2-0.5-13.4-0.3-19.4C101.5,473.3,101.6,461.9,101.6,459.5z M53.5,448.1c2.1,0,5.1-0.1,8.8-0.1
		c3.6,0,11,0.2,12,0.2c1,0,3.6-0.2,3.7,1.5c0.1,1.7,0.7,4.5-1.6,4.3c-2.2-0.2-15.1,1-17.6,1c-2.5,0-4.5,0-5.2,0
		c-0.7,0-1.7-1.8-1.7-2.8l0.2-1.1C52.1,451.1,51.5,448.1,53.5,448.1z M79.9,481.9c0,1-1.2,0.9-1.2,0.9c-1.8,0.1-4.8,0-7.3,0.1
		c0,0-0.7,0-0.7,0.6c0,2.4,0.1,5.4,0,7.8c0,0,0.1,1-0.9,1c-1.6,0.1-3.5,0-5.2,0c-0.5,0-1.7,0-2.5,0c-1,0-1-0.9-1-0.9
		c0-1.2,0-2.9,0-3.9c0-1.5,0.1-2.7,0-3.6c0-0.7-0.8-0.7-0.8-0.7c-2.7-0.1-5.4,0-7.7-0.1c-1.1,0-1.1-0.9-1.1-0.9
		c-0.1-1.3-0.1-2.7-0.1-4.2c0-1.4,0-2.1,0-3.3c0-0.7,0.3-0.9,0.8-0.9c0.4,0,0.8,0,1.2,0c1.9,0.1,4.3,0,6.2,0c0,0,1.3,0,1.3-1.1
		c0-2.1,0-4.5,0.1-6.8c0,0-0.1-1.4,1.4-1.4c1.8-0.1,4.2,0,6.2-0.1c0,0,1.6-0.1,1.6,1c0,0.5,0,1,0,1.6c0,1.7,0.1,3.6,0.1,5.5
		c0,0-0.1,1.2,1.3,1.2c2.2,0,4.6-0.1,6.7-0.1c0,0,1.4,0,1.4,1.2C79.9,476.9,79.9,479.9,79.9,481.9z"/>
</g>
</svg>
