<?xml version="1.0" encoding="utf-8"?>
<!-- Generator: Adobe Illustrator 20.1.0, SVG Export Plug-In . SVG Version: 6.00 Build 0)  -->
<svg version="1.1" id="Lager_1" xmlns="http://www.w3.org/2000/svg" xmlns:xlink="http://www.w3.org/1999/xlink" x="0px" y="0px"
	 viewBox="0 0 452.9 100.1" style="enable-background:new 0 0 452.9 100.1;" xml:space="preserve" width="452.9" height="100.1">
<style type="text/css">
	.st0{fill:#FF0000;}
</style>
<g>
	<path class="st0" d="M107.2,56.6c1.3,2.1,3.7,3,5.9,3c2.5,0,5.6-1.6,5.6-4.7c0-6.5-13.8-2.5-13.8-13.4c0-3.3,2.8-7.8,9.5-7.8
		c3.1,0,6,0.6,8.1,3.2l-3.1,2.8c-1-1.5-2.8-2.5-5-2.5c-4.2,0-5.5,2.5-5.5,4.3c0,7.1,13.8,2.9,13.8,13c0,5.4-4.4,8.7-9.8,8.7
		c-3.6,0-7.1-1.2-9-3.9L107.2,56.6z"/>
	<path class="st0" d="M135.6,43.2c5.6,0,10,4.4,10,9.9c0,5.5-4.4,9.9-10,9.9c-5.6,0-10-4.4-10-9.9C125.6,47.6,130,43.2,135.6,43.2z
		 M135.6,59.6c3.8,0,6.2-2.7,6.2-6.5c0-3.8-2.4-6.5-6.2-6.5c-3.8,0-6.2,2.7-6.2,6.5C129.4,56.9,131.8,59.6,135.6,59.6z"/>
	<path class="st0" d="M162.8,48.7c-1.3-1.4-2.7-2.1-4.7-2.1c-3.9,0-5.9,3.1-5.9,6.7c0,3.5,2.4,6.4,6.1,6.4c2,0,3.4-0.7,4.6-2.1
		l2.5,2.5c-1.9,2.1-4.4,2.9-7.1,2.9c-5.8,0-9.8-4-9.8-9.8c0-5.8,4-9.9,9.8-9.9c2.7,0,5.4,1,7.2,3L162.8,48.7z"/>
	<path class="st0" d="M172.1,34.4c1.4,0,2.6,1.2,2.6,2.6c0,1.4-1.2,2.6-2.6,2.6c-1.4,0-2.6-1.2-2.6-2.6
		C169.5,35.5,170.7,34.4,172.1,34.4z M170.3,43.7h3.6v18.8h-3.6V43.7z"/>
	<path class="st0" d="M179.9,46c2-1.9,4.8-2.8,7.5-2.8c5.5,0,7.8,3,7.8,6.3v9.6c0,1.3,0,2.4,0.2,3.4h-3.2c-0.1-1-0.1-1.9-0.1-2.9
		H192c-1.6,2.4-3.7,3.3-6.6,3.3c-3.5,0-6.5-2-6.5-5.6c0-4.8,4.6-6.5,10.3-6.5h2.6V50c0-1.9-1.4-4-4.5-4c-2.7,0-4,1.1-5.4,2.1
		L179.9,46z M189.9,53.5c-3.4,0-7.5,0.6-7.5,3.6c0,2.1,1.6,3,4,3c4,0,5.4-2.9,5.4-5.5v-1.2H189.9z"/>
	<path class="st0" d="M201.1,32.5h3.6v30h-3.6V32.5z"/>
	<path class="st0" d="M228.4,62.5h-3.6v-2.7h-0.1c-1.4,2-4,3.2-6.5,3.2c-5.8,0-9.6-4.3-9.6-9.9c0-5.6,3.8-9.9,9.6-9.9
		c2.7,0,5.3,1.2,6.5,3.2h0.1V32.5h3.6V62.5z M224.9,53.1c0-3.8-2.4-6.5-6.2-6.5c-3.8,0-6.2,2.7-6.2,6.5c0,3.8,2.4,6.5,6.2,6.5
		C222.5,59.6,224.9,56.9,224.9,53.1z"/>
	<path class="st0" d="M236.6,54.4c0,3.3,3.1,5.5,6.3,5.5c2.2,0,3.8-1.1,5.2-2.8l2.7,2.1c-2,2.6-4.7,3.8-8.3,3.8
		c-5.9,0-9.7-4.3-9.7-9.9c0-5.6,4.1-9.9,9.7-9.9c6.6,0,9.2,5.1,9.2,9.9v1.3H236.6z M247.9,51.6c-0.1-3.1-1.8-5.5-5.4-5.5
		c-3.5,0-5.8,3-5.8,5.5H247.9z"/>
	<path class="st0" d="M255.6,43.7h3.3v2.9h0.1c0.4-1.1,2.7-3.4,6-3.4c2.8,0,4.7,1.2,5.9,3.5c1.2-2.3,3.7-3.5,5.9-3.5
		c5.8,0,7.1,4.1,7.1,8.3v10.9h-3.6V52c0-2.9-0.6-5.5-4-5.5c-3.4,0-4.8,2.3-4.8,5.7v10.3H268v-9.8c0-3.6-0.5-6.1-4-6.1
		c-2.6,0-4.9,1.9-4.9,6.2v9.8h-3.6V43.7z"/>
	<path class="st0" d="M297.6,43.2c5.6,0,10,4.4,10,9.9c0,5.5-4.4,9.9-10,9.9c-5.6,0-10-4.4-10-9.9C287.6,47.6,292,43.2,297.6,43.2z
		 M297.6,59.6c3.8,0,6.2-2.7,6.2-6.5c0-3.8-2.4-6.5-6.2-6.5c-3.8,0-6.2,2.7-6.2,6.5C291.4,56.9,293.8,59.6,297.6,59.6z"/>
	<path class="st0" d="M311.2,32.5h3.6v19.3l8.1-8.1h5l-8.8,8.5l9.5,10.2h-5.1l-8.7-9.8v9.8h-3.6V32.5z"/>
	<path class="st0" d="M331.9,43.7h3.6v2.9h0.1c0.9-2,3.3-3.4,5.6-3.4c0.6,0,1.1,0.1,1.6,0.2l-0.2,3.8c-0.6-0.2-1.2-0.3-1.7-0.3
		c-3.5,0-5.4,1.9-5.4,6v9.4h-3.6V43.7z"/>
	<path class="st0" d="M345.8,46c2-1.9,4.8-2.8,7.5-2.8c5.5,0,7.8,3,7.8,6.3v9.6c0,1.3,0,2.4,0.2,3.4h-3.2c-0.1-1-0.1-1.9-0.1-2.9
		h-0.1c-1.6,2.4-3.7,3.3-6.6,3.3c-3.5,0-6.5-2-6.5-5.6c0-4.8,4.6-6.5,10.3-6.5h2.6V50c0-1.9-1.4-4-4.5-4c-2.7,0-4,1.1-5.3,2.1
		L345.8,46z M355.8,53.5c-3.4,0-7.5,0.6-7.5,3.6c0,2.1,1.6,3,4,3c4,0,5.4-2.9,5.4-5.5v-1.2H355.8z"/>
	<path class="st0" d="M376.4,46.8h-5.1v8.5c0,2.1,0,4.3,2.7,4.3c0.8,0,1.8-0.1,2.5-0.6v3.2c-0.8,0.5-2.5,0.6-3.2,0.6
		c-5.5,0-5.6-3.4-5.6-6.4v-9.8h-4.1v-3.1h4.1v-5.3h3.6v5.3h5.1V46.8z"/>
	<path class="st0" d="M383,54.4c0,3.3,3.1,5.5,6.3,5.5c2.2,0,3.8-1.1,5.2-2.8l2.7,2.1c-2,2.6-4.7,3.8-8.3,3.8
		c-5.9,0-9.7-4.3-9.7-9.9c0-5.6,4.1-9.9,9.7-9.9c6.6,0,9.2,5.1,9.2,9.9v1.3H383z M394.2,51.6c-0.1-3.1-1.8-5.5-5.4-5.5
		c-3.5,0-5.8,3-5.8,5.5H394.2z"/>
	<path class="st0" d="M402.2,43.7h3.6v2.9h0.1c0.9-2,3.3-3.4,5.6-3.4c0.6,0,1.1,0.1,1.6,0.2l-0.2,3.8c-0.6-0.2-1.2-0.3-1.7-0.3
		c-3.5,0-5.4,1.9-5.4,6v9.4h-3.6V43.7z"/>
	<path class="st0" d="M416.5,43.7h3.6v2.9h0.1c0.9-2,3.3-3.4,6.2-3.4c3.6,0,6.8,2.2,6.8,7.2v12.1h-3.6V51.4c0-3.5-2-4.8-4.3-4.8
		c-3,0-5.2,1.9-5.2,6.3v9.7h-3.6V43.7z"/>
	<path class="st0" d="M437.5,46c2-1.9,4.8-2.8,7.5-2.8c5.5,0,7.8,3,7.8,6.3v9.6c0,1.3,0,2.4,0.2,3.4h-3.2c-0.1-1-0.1-1.9-0.1-2.9
		h-0.1c-1.6,2.4-3.7,3.3-6.6,3.3c-3.5,0-6.5-2-6.5-5.6c0-4.8,4.6-6.5,10.3-6.5h2.6V50c0-1.9-1.4-4-4.5-4c-2.7,0-4,1.1-5.3,2.1
		L437.5,46z M447.5,53.5c-3.4,0-7.5,0.6-7.5,3.6c0,2.1,1.6,3,4,3c4,0,5.4-2.9,5.4-5.5v-1.2H447.5z"/>
</g>
<g>
	<g>
		<path class="st0" d="M45.9,5.1c-1.1,5.1-1.2,15.3-2.2,20.8c6.9-3.2,11.2-5.8,18.3-8.4C57.6,11.6,53.4,6.2,45.9,5.1"/>
		<path class="st0" d="M32.1,72.9c-4.4-1.1-6.5-3.2-8.7-5.4c-0.6-0.6,1.8-2.6,2.7-2.2c3.1,1.6,6.1,3.4,7.6,3.6
			c19.7,2.4,25.5-5.5,27.4-10c-9.4-12.1-18.3-8.7-18.3-8.7c-0.4,3.3-1.3,6.2-1.3,9.6c0,0.3-9.7,1.5-10,1.1c-1.8-1.7-3.9-4-5.5-5.8
			c-5,4.3-10.4,6.7-16.1,10.1c1.3,5.4,7.4,16.8,11,19c20.9,12.4,42.3,9.6,41.9-19.6C57.1,75.8,38.2,74.3,32.1,72.9"/>
		<path class="st0" d="M70.2,33.2c-2.7,0.7-6.7-4.9-4.6-7.4C68.6,22.6,76.3,31.6,70.2,33.2 M76.7,17.8c-1.3-1-25.3,10.1-33.2,12.3
			c-0.7,5.2-1.1,10.7-1.2,15.9c6.8-1.6,13.8,1,20.7,7.8c1.2-3,1.2-9.1,1-12.5c0-1.2,2.6-1.7,2.8-1.4c3.1,3.9,0.9,14.1-0.6,19.1
			c0.5,7.4,0.6,11.3-0.9,18C102,71.3,84.2,23.4,76.7,17.8"/>
		<path class="st0" d="M24.3,51.2c-1.8-2.8-2.8-6.8-3.2-10.3c-3.2-1.7-8.1-7-11.3-4.9c-7.2,4.7-5.6,8.8-5.2,9.4
			c3.8,6,5.6,8.6,8.8,11.9C16.8,55.9,20.6,53.4,24.3,51.2"/>
		<path class="st0" d="M31.9,48.2c-3.9-1.7-4.1-10.1-0.8-9.1C36.2,40.8,37.4,50.6,31.9,48.2 M25.9,37.9c-4.3,6.1,7.5,19.2,7.5,19.2
			l4.4-0.4c-0.4-9.7,1.9-17.9-0.1-19.7C36.1,35.4,29.5,32.8,25.9,37.9"/>
		<path class="st0" d="M38.7,34.6c-0.2-0.3,1.7-15.2,1.8-21.8c-9.5-2.2-27,8.7-28.8,13.6c4,3.4,7.9,6.3,11.8,9.7
			C26.5,28,36.9,31.1,38.7,34.6"/>
	</g>
</g>
</svg>
