<?xml version="1.0" encoding="utf-8"?>
<!-- Generator: Adobe Illustrator 20.1.0, SVG Export Plug-In . SVG Version: 6.00 Build 0)  -->
<svg version="1.1" xmlns="http://www.w3.org/2000/svg" xmlns:xlink="http://www.w3.org/1999/xlink" x="0px" y="0px"
	 viewBox="0 0 349.7 340.9" style="enable-background:new 0 0 349.7 340.9;" xml:space="preserve" width="349.7" height="340.9">
<style type="text/css">
	.st0{fill:#FFFFFF;}
	.st1{fill:#FF0000;}
</style>
<g id="Layer_2">
</g>
<g id="Lager_1">
	<g>
		<path class="st0" d="M3.1,302.7c1.4,2.1,3.7,3,6,3c2.5,0,5.6-1.6,5.6-4.7c0-6.5-13.9-2.5-13.9-13.4c0-3.3,2.8-7.9,9.5-7.9
			c3.1,0,6,0.6,8.1,3.2l-3.1,2.8c-1-1.5-2.8-2.5-5-2.5c-4.2,0-5.5,2.5-5.5,4.3c0,7.1,13.9,2.9,13.9,13c0,5.4-4.4,8.7-9.8,8.7
			c-3.6,0-7.1-1.2-9-3.9L3.1,302.7z"/>
		<path class="st0" d="M31.6,289.3c5.6,0,10,4.4,10,9.9c0,5.5-4.4,9.9-10,9.9c-5.6,0-10-4.4-10-9.9C21.6,293.7,26,289.3,31.6,289.3z
			 M31.6,305.8c3.8,0,6.2-2.7,6.2-6.6s-2.4-6.6-6.2-6.6c-3.8,0-6.2,2.7-6.2,6.6S27.8,305.8,31.6,305.8z"/>
		<path class="st0" d="M58.9,294.8c-1.3-1.4-2.7-2.1-4.7-2.1c-3.9,0-5.9,3.1-5.9,6.7c0,3.5,2.4,6.4,6.1,6.4c2,0,3.4-0.7,4.6-2.1
			l2.5,2.5c-1.9,2.1-4.4,2.9-7.2,2.9c-5.8,0-9.9-4-9.9-9.8c0-5.8,4-9.9,9.9-9.9c2.7,0,5.4,1,7.2,3L58.9,294.8z"/>
		<path class="st0" d="M68.2,280.4c1.4,0,2.6,1.2,2.6,2.6c0,1.4-1.2,2.6-2.6,2.6c-1.4,0-2.6-1.2-2.6-2.6
			C65.6,281.6,66.8,280.4,68.2,280.4z M66.4,289.8H70v18.8h-3.6V289.8z"/>
		<path class="st0" d="M76,292.1c2-1.9,4.8-2.8,7.5-2.8c5.6,0,7.9,3,7.9,6.3v9.6c0,1.3,0,2.4,0.2,3.4h-3.2c-0.1-1-0.1-1.9-0.1-2.9
			h-0.1c-1.6,2.4-3.7,3.3-6.6,3.3c-3.5,0-6.5-2-6.5-5.6c0-4.8,4.6-6.5,10.4-6.5H88v-0.8c0-1.9-1.4-4-4.5-4c-2.7,0-4.1,1.2-5.4,2.1
			L76,292.1z M86.1,299.6c-3.4,0-7.5,0.6-7.5,3.6c0,2.1,1.6,3.1,4.1,3.1c4,0,5.4-2.9,5.4-5.5v-1.2H86.1z"/>
		<path class="st0" d="M97.2,278.6h3.6v30h-3.6V278.6z"/>
		<path class="st0" d="M124.7,308.6h-3.6v-2.7H121c-1.4,2-4,3.2-6.6,3.2c-5.8,0-9.6-4.3-9.6-9.9c0-5.6,3.8-9.9,9.6-9.9
			c2.7,0,5.3,1.2,6.6,3.2h0.1v-13.9h3.6V308.6z M121.1,299.2c0-3.8-2.4-6.6-6.2-6.6c-3.8,0-6.2,2.7-6.2,6.6s2.4,6.6,6.2,6.6
			C118.7,305.8,121.1,303,121.1,299.2z"/>
		<path class="st0" d="M132.8,300.5c0,3.3,3.1,5.5,6.4,5.5c2.2,0,3.8-1.1,5.2-2.8l2.7,2.1c-2,2.6-4.7,3.9-8.3,3.9
			c-6,0-9.7-4.3-9.7-9.9c0-5.6,4.1-9.9,9.7-9.9c6.6,0,9.2,5.1,9.2,9.9v1.3H132.8z M144.1,297.7c-0.1-3.1-1.8-5.5-5.4-5.5
			c-3.5,0-5.8,3-5.8,5.5H144.1z"/>
		<path class="st0" d="M151.9,289.8h3.3v2.9h0.1c0.4-1.1,2.7-3.4,6-3.4c2.8,0,4.7,1.2,5.9,3.5c1.2-2.3,3.7-3.5,6-3.5
			c5.8,0,7.2,4.1,7.2,8.3v11h-3.6v-10.5c0-2.9-0.6-5.5-4.1-5.5c-3.5,0-4.8,2.3-4.8,5.7v10.3h-3.6v-9.9c0-3.6-0.5-6.1-4-6.1
			c-2.6,0-4.9,1.9-4.9,6.2v9.8h-3.6V289.8z"/>
		<path class="st0" d="M194,289.3c5.6,0,10,4.4,10,9.9c0,5.5-4.4,9.9-10,9.9c-5.6,0-10-4.4-10-9.9C184,293.7,188.4,289.3,194,289.3z
			 M194,305.8c3.8,0,6.2-2.7,6.2-6.6s-2.4-6.6-6.2-6.6c-3.8,0-6.2,2.7-6.2,6.6S190.2,305.8,194,305.8z"/>
		<path class="st0" d="M207.6,278.6h3.6V298l8.1-8.1h5l-8.8,8.5l9.5,10.3h-5.1l-8.7-9.8v9.8h-3.6V278.6z"/>
		<path class="st0" d="M228.3,289.8h3.6v2.9h0.1c0.9-2,3.3-3.4,5.6-3.4c0.6,0,1.1,0.1,1.6,0.2l-0.2,3.9c-0.6-0.2-1.2-0.3-1.7-0.3
			c-3.5,0-5.4,1.9-5.4,6v9.5h-3.6V289.8z"/>
		<path class="st0" d="M242.3,292.1c2-1.9,4.8-2.8,7.5-2.8c5.6,0,7.9,3,7.9,6.3v9.6c0,1.3,0,2.4,0.2,3.4h-3.2
			c-0.1-1-0.1-1.9-0.1-2.9h-0.1c-1.6,2.4-3.7,3.3-6.6,3.3c-3.5,0-6.5-2-6.5-5.6c0-4.8,4.6-6.5,10.4-6.5h2.6v-0.8c0-1.9-1.4-4-4.5-4
			c-2.7,0-4,1.2-5.4,2.1L242.3,292.1z M252.4,299.6c-3.4,0-7.5,0.6-7.5,3.6c0,2.1,1.6,3.1,4,3.1c4,0,5.4-2.9,5.4-5.5v-1.2H252.4z"/>
		<path class="st0" d="M272.9,292.9h-5.1v8.5c0,2.1,0,4.3,2.7,4.3c0.8,0,1.8-0.1,2.5-0.6v3.3c-0.8,0.5-2.5,0.6-3.2,0.6
			c-5.5,0-5.6-3.4-5.6-6.4v-9.8h-4.1v-3.1h4.1v-5.3h3.6v5.3h5.1V292.9z"/>
		<path class="st0" d="M279.5,300.5c0,3.3,3.1,5.5,6.4,5.5c2.2,0,3.8-1.1,5.2-2.8l2.7,2.1c-2,2.6-4.7,3.9-8.3,3.9
			c-6,0-9.7-4.3-9.7-9.9c0-5.6,4.1-9.9,9.7-9.9c6.6,0,9.2,5.1,9.2,9.9v1.3H279.5z M290.8,297.7c-0.1-3.1-1.8-5.5-5.4-5.5
			c-3.5,0-5.8,3-5.8,5.5H290.8z"/>
		<path class="st0" d="M298.8,289.8h3.6v2.9h0.1c0.9-2,3.3-3.4,5.6-3.4c0.6,0,1.1,0.1,1.6,0.2l-0.2,3.9c-0.6-0.2-1.2-0.3-1.7-0.3
			c-3.5,0-5.4,1.9-5.4,6v9.5h-3.6V289.8z"/>
		<path class="st0" d="M313.2,289.8h3.6v2.9h0.1c0.9-2,3.3-3.4,6.2-3.4c3.7,0,6.8,2.2,6.8,7.2v12.1h-3.6v-11.1c0-3.5-2-4.8-4.3-4.8
			c-3,0-5.2,1.9-5.2,6.3v9.7h-3.6V289.8z"/>
		<path class="st0" d="M334.2,292.1c2-1.9,4.8-2.8,7.5-2.8c5.6,0,7.9,3,7.9,6.3v9.6c0,1.3,0,2.4,0.2,3.4h-3.2
			c-0.1-1-0.1-1.9-0.1-2.9h-0.1c-1.6,2.4-3.7,3.3-6.6,3.3c-3.5,0-6.5-2-6.5-5.6c0-4.8,4.6-6.5,10.4-6.5h2.6v-0.8c0-1.9-1.4-4-4.5-4
			c-2.7,0-4,1.2-5.4,2.1L334.2,292.1z M344.3,299.6c-3.4,0-7.5,0.6-7.5,3.6c0,2.1,1.6,3.1,4,3.1c4,0,5.4-2.9,5.4-5.5v-1.2H344.3z"/>
	</g>
	<g>
		<g>
			<path class="st0" d="M293.3,124.8c-2.1-26.9-10.1-49.5-17.4-63.4c-4.9-9.5-9.5-16.9-13.9-21.3c-1.5-1.6-4.7-4.6-7.9-4.9
				c-3.3-0.3-7.5,0.4-16.5,3.3c-6.7,2.2-11.7,4-13.6,4.7c-1-1.3-2.8-3.8-4.3-5.8c-4.9-6.4-10.9-14.4-18-20c-5-3.9-9.4-7-16-9.6
				c-4.2-1.8-8.4-3.1-12.2-3.9c-7-1.5-13.1-2.2-14.7-2.3c-0.2,1.1-0.6,4.5-1.2,8.8c-0.8,5.4-1.7,13.4-1.8,13.9
				c-6-1.4-14.3-1.6-21-0.3c-11.9,2.3-22,6.9-30,10.9c-9.9,5-17.6,10.4-22,13.8c-8.1,6.1-13.3,11.9-16.3,16.7
				c-1.9,2.9-2.9,5.5-3.5,7.4c-0.4,1.4-0.6,2.4-0.6,2.8l13.5,10.5c-1.8-0.1-4,0.3-5.6,0.9c-4.6,1.6-5.9,2.3-7.7,3.4
				c-3.3,1.9-5.8,4-8.3,6.4c-4.1,4.2-9.7,13.4-9.7,21.4c0,1.2,0.1,2.4,0.4,3.5c1.5,7.2,5.7,12.7,9,18c2.2,3.5,6.7,9.6,10.8,14.8
				c3.8,4.9,7.4,9.1,7.8,9.5l-15.4,8.5l0.3,1.1h0c0.2,0.9,0.6,2.5,1.1,4.6c0.9,3.4,2.3,8.1,4.4,13.1c5.3,13.2,19.5,38,27,44.1
				c13,10.6,39.1,24,73.1,24c0.3,0,0.5,0,0.8,0c15.4-0.1,31.6-8,41.3-18.2c4.2-4.5,7.7-9.7,10.2-13.7c2.4-4,3.8-6.9,3.8-6.9l0.1-0.2
				l0.2-0.1c0.1,0,0.1,0,0.1,0c0.6,0,27.7-0.1,47.4-18.1c5-4.6,26.7-22.7,26.8-66.3C293.7,132.4,293.6,128.7,293.3,124.8"/>
			<path class="st1" d="M168.5,14c-2.9,14-3.2,41.8-6,56.7c19-8.7,30.6-15.8,50-23C200.5,31.7,189,17,168.5,14"/>
			<path class="st1" d="M130.9,199c-12-2.9-17.7-8.7-23.6-14.7c-1.5-1.6,5-7.2,7.4-6c8.4,4.3,16.6,9.3,20.8,9.8
				c53.8,6.6,69.6-14.9,74.7-27.4c-25.7-33.1-49.9-23.8-49.9-23.8c-1.1,9-3.6,17.1-3.6,26.3c0.1,0.9-26.5,4.1-27.3,2.9
				c-4.9-4.6-10.7-10.9-15.1-15.8c-13.6,11.8-28.4,18.2-44,27.6c3.4,14.8,20.2,45.9,30.1,51.8c57,33.8,115.6,26.1,114.3-53.5
				C199,207.1,147.4,203,130.9,199"/>
			<path class="st1" d="M234.9,90.7c-7.5,2-18.4-13.4-12.5-20.1C230.3,61.6,251.3,86.3,234.9,90.7 M252.7,48.5
				c-3.5-2.6-69.1,27.5-90.7,33.6c-2,14.3-3,29.4-3.3,43.5c18.7-4.5,37.5,2.7,56.5,21.3c3.2-8.2,3.2-24.7,2.8-34.1
				c-0.1-3.2,7.1-4.5,7.7-3.8c8.4,10.7,2.4,38.4-1.6,52.2c1.3,20.3,1.6,31-2.5,49.2C321.6,194.6,273.1,63.8,252.7,48.5"/>
			<path class="st1" d="M109.5,139.8c-5-7.6-7.6-18.5-8.7-28.2c-8.8-4.7-22.2-19.2-31-13.5c-19.6,12.9-15.4,24-14.2,25.8
				c10.2,16.5,15.2,23.6,24.1,32.6C89,152.5,99.3,145.7,109.5,139.8"/>
			<path class="st1" d="M130.2,131.7c-10.6-4.5-11.2-27.7-2.1-24.7C141.9,111.5,145.1,138.2,130.2,131.7 M113.9,103.5
				c-11.8,16.7,20.5,52.3,20.5,52.3l12.1-1.1c-1-26.5,5.1-48.8-0.2-53.7C141.6,96.7,123.7,89.5,113.9,103.5"/>
			<path class="st1" d="M148.9,94.6c-0.5-0.8,4.7-41.5,5-59.6C127.8,29,80,58.9,75.2,72.1c11,9.4,21.5,17.3,32.3,26.5
				C115.4,76.4,143.8,85,148.9,94.6"/>
		</g>
	</g>
</g>
</svg>
