<?xml version="1.0" encoding="utf-8"?>
<!-- Generator: Adobe Illustrator 20.1.0, SVG Export Plug-In . SVG Version: 6.00 Build 0)  -->
<svg version="1.1" id="Lager_1" xmlns="http://www.w3.org/2000/svg" xmlns:xlink="http://www.w3.org/1999/xlink" x="0px" y="0px"
	 viewBox="0 0 841.9 595.3" style="enable-background:new 0 0 841.9 595.3;" xml:space="preserve" width="841.9" height="595.3">
<style type="text/css">
	.st0{fill:#B41918;}
	.st1{clip-path:url(#SVGID_2_);fill:#E40428;}
</style>
<rect y="0" class="st0" width="841.9" height="595.3"/>
<g>
	<defs>
		<rect id="SVGID_1_" y="60.9" width="841.9" height="534.3"/>
	</defs>
	<clipPath id="SVGID_2_">
		<use xlink:href="#SVGID_1_"  style="overflow:visible;"/>
	</clipPath>
	<path class="st1" d="M718.6,254.1c-12.1-18-25.4-34.9-39.6-52.5l-147.4,44.9c-98-182.1-286-185.5-286-185.5l-12.6,105
		C-91.1,137.3-181.1,388-181.1,388s23.7,19.7,49.2,40.8c-132.4,37.4-145.9,149.1-145.9,149.1s91.6,129.2,140,197.8
		c0.9,2.6,1.7,3.9,1.7,3.9l-68.2,38.2c0,0-7.1,302.9,326.5,366.4c0,0,287.9,72,386.8-151.7c67.1-3.3,156-22.3,222.2-89.9
		c20.6-21.1,38.8-42.6,53.9-68.1c38-64.2,55.5-138.8,56.8-213.1c2.2-129.1-35.5-247.6-94-361.1C740.8,286.7,726.8,266.2,718.6,254.1
		"/>
</g>
</svg>
