<?xml version="1.0" encoding="utf-8"?>
<!-- Generator: Adobe Illustrator 20.1.0, SVG Export Plug-In . SVG Version: 6.00 Build 0)  -->
<svg version="1.1" id="Lager_1" xmlns="http://www.w3.org/2000/svg" xmlns:xlink="http://www.w3.org/1999/xlink" x="0px" y="0px"
	 viewBox="0 0 595.3 841.9" style="enable-background:new 0 0 595.3 841.9;" xml:space="preserve" width="595.3" height="841.9">
<style type="text/css">
	.st0{fill:#FCE2DF;}
	.st1{clip-path:url(#SVGID_2_);fill:#FFFFFF;}
</style>
<rect y="0" class="st0" width="595.3" height="841.9"/>
<g>
	<defs>
		<rect id="SVGID_1_" x="95.7" y="172.2" width="499.6" height="669.7"/>
	</defs>
	<clipPath id="SVGID_2_">
		<use xlink:href="#SVGID_1_"  style="overflow:visible;"/>
	</clipPath>
	<path class="st1" d="M885,325.2c-9.6-14.2-20.2-27.6-31.3-41.6l-116.7,35.5c-77.6-144.3-226.5-147-226.5-147l-10,83.2
		c-256.8-22.7-328.1,176-328.1,176s18.7,15.6,39,32.3C106.3,493.3,95.7,581.7,95.7,581.7s72.5,102.4,110.9,156.7
		c0.7,2,1.4,3.1,1.4,3.1l-54,30.2c0,0-5.6,239.9,258.6,290.3c0,0,228.1,57,306.4-120.2c53.2-2.6,123.6-17.6,176-71.2
		c16.3-16.7,30.8-33.7,42.7-54c30.1-50.9,44-110,45-168.8c1.7-102.3-28.1-196.2-74.4-286C902.6,351.1,891.5,334.8,885,325.2"/>
</g>
</svg>
