<?xml version="1.0" encoding="utf-8"?>
<!-- Generator: Adobe Illustrator 20.1.0, SVG Export Plug-In . SVG Version: 6.00 Build 0)  -->
<svg version="1.1" id="Lager_1" xmlns="http://www.w3.org/2000/svg" xmlns:xlink="http://www.w3.org/1999/xlink" x="0px" y="0px"
	 viewBox="0 0 595.3 595.3" style="enable-background:new 0 0 595.3 595.3;" xml:space="preserve" width="595.3" height="595.3">
<style type="text/css">
	.st0{fill:#B41918;}
	.st1{clip-path:url(#SVGID_2_);fill:#E40428;}
</style>
<rect y="0" class="st0" width="595.3" height="595.3"/>
<g>
	<defs>
		<rect id="SVGID_1_" x="35.3" y="34" width="560" height="561.3"/>
	</defs>
	<clipPath id="SVGID_2_">
		<use xlink:href="#SVGID_1_"  style="overflow:visible;"/>
	</clipPath>
	<path class="st1" d="M705.8,164c-8.2-12.1-17.1-23.5-26.6-35.3L580,158.8C514,36.3,387.6,34,387.6,34l-8.5,70.6
		C160.9,85.4,100.3,254.1,100.3,254.1s15.9,13.3,33.1,27.4c-89.1,25.2-98.2,100.3-98.2,100.3s61.6,87,94.2,133.1
		c0.6,1.7,1.1,2.6,1.1,2.6l-45.9,25.7c0,0-4.8,203.8,219.7,246.6c0,0,193.7,48.4,260.2-102.1c45.2-2.2,105-15,149.5-60.5
		c13.9-14.2,26.1-28.6,36.3-45.8c25.6-43.2,37.4-93.4,38.2-143.4c1.5-86.9-23.9-166.6-63.2-243C720.7,185.9,711.3,172.1,705.8,164"
		/>
</g>
</svg>
