<?xml version="1.0" encoding="utf-8"?>
<!-- Generator: Adobe Illustrator 20.1.0, SVG Export Plug-In . SVG Version: 6.00 Build 0)  -->
<svg version="1.1" id="Lager_1" xmlns="http://www.w3.org/2000/svg" xmlns:xlink="http://www.w3.org/1999/xlink" x="0px" y="0px"
	 viewBox="0 0 595.3 595.3" style="enable-background:new 0 0 595.3 595.3;" xml:space="preserve" width="595.3" height="595.3">
<style type="text/css">
	.st0{fill:#E40428;}
	.st1{clip-path:url(#SVGID_2_);fill:#B41918;}
</style>
<rect y="0" class="st0" width="595.3" height="595.3"/>
<g>
	<defs>
		<rect id="SVGID_1_" x="77.9" y="131.8" width="517.4" height="463.5"/>
	</defs>
	<clipPath id="SVGID_2_">
		<use xlink:href="#SVGID_1_"  style="overflow:visible;"/>
	</clipPath>
	<path class="st1" d="M934.6,297.9c-10.4-15.4-21.9-30-34-45.1l-126.7,38.6C689.6,134.7,528,131.8,528,131.8l-10.9,90.3
		c-278.7-24.6-356.1,191-356.1,191s20.3,16.9,42.3,35.1C89.5,480.3,77.9,576.3,77.9,576.3s78.7,111.1,120.3,170.1
		c0.8,2.2,1.5,3.4,1.5,3.4l-58.6,32.8c0,0-6.1,260.4,280.7,315.1c0,0,247.5,61.9,332.5-130.5c57.7-2.8,134.2-19.1,191-77.3
		c17.7-18.1,33.4-36.6,46.4-58.6c32.7-55.2,47.7-119.4,48.8-183.2c1.9-111-30.5-212.9-80.8-310.5C953.7,326,941.7,308.3,934.6,297.9
		"/>
</g>
</svg>
